<?xml version="1.0" encoding="iso-8859-1"?>
<svg version="1.1" id="Layer_1" xmlns="http://www.w3.org/2000/svg" xmlns:xlink="http://www.w3.org/1999/xlink" x="100px" y="100px"
         viewBox="-50 -50 720 400" xml:space="preserve">
  <rect
    x="0"
    y="0"
    width="100%"
    height="100%"
    clip-path="url(#clip-path)"
    style='fill: url("#fill");'
  ></rect>
  <defs>
    <clipPath id="clip-path">
        <rect x="0" y="0" rx="0" ry="0" width="NaN" height="NaN" /> 
        <rect x="48" y="26" rx="3" ry="3" width="52" height="6" /> 
        <rect x="0" y="56" rx="3" ry="3" width="610" height="6" /> 
        <rect x="1" y="72" rx="3" ry="3" width="520" height="6" /> 
        <rect x="0" y="88" rx="3" ry="3" width="478" height="6" /> 
        <rect x="-11" y="302" rx="3" ry="3" width="610" height="6" /> 
        <rect x="1" y="72" rx="3" ry="3" width="520" height="6" /> 
        <rect x="0" y="88" rx="3" ry="3" width="478" height="6" /> 
        <rect x="-3" y="235" rx="3" ry="3" width="610" height="6" /> 
        <rect x="-2" y="258" rx="3" ry="3" width="520" height="6" /> 
        <rect x="-2" y="282" rx="3" ry="3" width="478" height="6" /> 
        <rect x="0" y="169" rx="3" ry="3" width="610" height="6" /> 
        <rect x="-5" y="190" rx="3" ry="3" width="520" height="6" /> 
        <rect x="0" y="210" rx="3" ry="3" width="478" height="6" /> 
        <rect x="-1" y="108" rx="3" ry="3" width="610" height="6" /> 
        <rect x="0" y="125" rx="3" ry="3" width="520" height="6" /> 
        <rect x="0" y="145" rx="3" ry="3" width="478" height="6" /> 
        <circle cx="20" cy="20" r="20" />
    </clipPath>
    <linearGradient id="fill">
      <stop
        offset="0.599964"
        stop-color="#f3f3f3"
        stop-opacity="1"
      >
        <animate
          attributeName="offset"
          values="-2; -2; 1"
          keyTimes="0; 0.25; 1"
          dur="2s"
          repeatCount="indefinite"
        ></animate>
      </stop>
      <stop
        offset="1.59996"
        stop-color="#7189b7"
        stop-opacity="1"
      >
        <animate
          attributeName="offset"
          values="-1; -1; 2"
          keyTimes="0; 0.25; 1"
          dur="2s"
          repeatCount="indefinite"
        ></animate>
      </stop>
      <stop
        offset="2.59996"
        stop-color="#f3f3f3"
        stop-opacity="1"
      >
        <animate
          attributeName="offset"
          values="0; 0; 3"
          keyTimes="0; 0.25; 1"
          dur="2s"
          repeatCount="indefinite"
        ></animate>
      </stop>
    </linearGradient>
  </defs>
</svg>
